<?xml version="1.0" standalone="no"?><!DOCTYPE svg PUBLIC "-//W3C//DTD SVG 1.1//EN" "http://www.w3.org/Graphics/SVG/1.1/DTD/svg11.dtd"><svg t="1743332824179" class="icon" viewBox="0 0 1024 1024" version="1.1" xmlns="http://www.w3.org/2000/svg" p-id="5766" xmlns:xlink="http://www.w3.org/1999/xlink" width="512" height="512"><path d="M697.36 52.16l129.32 80.44L956 52.16h-258.64z" fill="#2197F7" p-id="5767"></path><path d="M677.32 222.08l108.56-96.04-108.56-67.48v163.52z" fill="#40BDFF" p-id="5768"></path><path d="M959.08 228.32c-30.6-27.12-76.72-68-105.76-93.48l-22.44 13.96a8 8 0 0 1-8.44 0L800 134.88 690.44 232h272.56z" fill="#2197F7" p-id="5769"></path><path d="M972.68 219l3.32 2.96V58.56l-108.48 67.48c72.04 63.68 85.68 75.68 105.16 92.96z" fill="#40BDFF" p-id="5770"></path><path d="M197.32 132.6l129.32-80.44H68l129.32 80.44z" fill="#FFDD00" p-id="5771"></path><path d="M239.4 976h561.2a12 12 0 0 0 12-12v-24.32H227.4V964a12 12 0 0 0 12 12z" fill="#2197F7" p-id="5772"></path><path d="M275.72 532.88h484.6V772H275.72z" fill="#EFFAFE" p-id="5773"></path><path d="M48 58.56v163.52l108.52-96.04L48 58.56z" fill="#FFEB66" p-id="5774"></path><path d="M230.64 923.68h578.72L762.6 788H277.4z m354.76-30.16a8 8 0 0 1-8 8h-52.32a8 8 0 0 1 0-16h52.32a8 8 0 0 1 8 8.04z m-138.76-8h52.32a8 8 0 1 1 0 16h-52.36a8 8 0 0 1 0-16zM275.72 492v24.88h484.56V492a12 12 0 0 0-12-12H287.72a12 12 0 0 0-12 12z" fill="#40BDFF" p-id="5775"></path><path d="M792.6 939.68V964a12 12 0 0 1-12 12h20a12 12 0 0 0 12-12v-24.32z" fill="#228ED6" p-id="5776"></path><path d="M740.28 532.88h20V772h-20z" fill="#E4EBED" p-id="5777"></path><path d="M762.6 788h-20l46.76 135.68h20L762.6 788zM748.28 480h-20a12 12 0 0 1 12 12v24.88h20V492a12 12 0 0 0-12-12z" fill="#2197F7" p-id="5778"></path><path d="M333.68 232l-4-3.48C299.48 201.52 254.08 161.44 224 134.84l-22.44 13.96a8 8 0 0 1-8.44 0l-22.4-13.92L61.12 232z" fill="#FFDD00" p-id="5779"></path><path d="M346.68 221.96V58.56L238.16 126.04 240 128c72.72 64 87.08 76.6 106.68 93.96z" fill="#FFEB66" p-id="5780"></path><path d="M330.68 68.52v139.28l16 14.2V58.56z" fill="#FFDD00" p-id="5781"></path><path d="M960 68.52v139.28l16 14.2V58.56z" fill="#2197F7" p-id="5782"></path><path d="M40 249.84h314.68a10.04 10.04 0 0 0 10-10V44a10.04 10.04 0 0 0-10-10H40A10.08 10.08 0 0 0 30 44v196a10.04 10.04 0 0 0 10 9.84z m26.4-20l104.52-92.48L192 150.48a10 10 0 0 0 10.56 0l21.16-13.16C253.04 163.2 299.44 204 328.4 229.84z m278.28-12.32c-26.76-23.76-75.72-66.96-103.16-91.2l103.16-64z m-25.04-163.36l-122.32 76-122.32-76z m-269.64 8l103.2 64-103.2 91.48zM984 34.16h-314.68a10.04 10.04 0 0 0-10 10V240a10.12 10.12 0 0 0 10 10H984a10.08 10.08 0 0 0 10-10V44a10.08 10.08 0 0 0-10-9.84z m-35 20l-122.32 76-122.32-76z m-269.64 8l103.2 64-103.2 91.28z m16.4 167.68l104.52-92.48 21.12 13.12a10 10 0 0 0 10.56 0l21.16-13.16c30.4 26.84 77.04 68 104.64 92.48z m278.28-12.32c-26.84-23.8-76.28-67.48-103.16-91.2l103.16-64zM498.92 883.56h-52.32a10 10 0 0 0 0 20h52.32a10 10 0 1 0 0-20zM577.4 883.56h-52.32a10 10 0 0 0 0 20h52.32a10 10 0 0 0 0-20z" fill="#263238" p-id="5783"></path><path d="M778.28 492a30.04 30.04 0 0 0-30-30H275.72a30.04 30.04 0 0 0-30 30v286.32l-51.76 150.12a15.16 15.16 0 0 0-0.56 3.28V964a30.04 30.04 0 0 0 30 30h577.2a30.04 30.04 0 0 0 30-30v-32.32a15.16 15.16 0 0 0-0.56-3.28l-51.76-150.08z m-512.56 0a10 10 0 0 1 10-10h472.56a10 10 0 0 1 10 10v22.88H265.72z m0 42.88h492.56v235.12H265.72zM810.6 964a10 10 0 0 1-10 10H223.4a10 10 0 0 1-10-10v-22.32h597.2z m-4-42.32H217.44l45.4-131.68h498.32zM445.92 280a10 10 0 0 0-10-10H360a10.08 10.08 0 0 0-10 10v76a10 10 0 0 0 20 0V304l135.12 135.12a10 10 0 0 0 14.16 0L654.16 304v52a10 10 0 0 0 20 0V280a10.04 10.04 0 0 0-10-10H588a10 10 0 0 0 0 20h52l-128 128-128-128h52a10 10 0 0 0 9.92-10z" fill="#263238" p-id="5784"></path><path d="M901.76 330.48h-16v-16a4 4 0 1 0-8 0v16h-16a4 4 0 0 0 0 8h16v16a4 4 0 0 0 8 0v-16h16a4 4 0 0 0 0-8z" fill="#40BDFF" p-id="5785"></path><path d="M620 108.24h-16v-16a4 4 0 1 0-8 0v16h-16a4 4 0 0 0 0 8h16v16a4 4 0 1 0 8 0v-16h16a4 4 0 0 0 0-8zM193.32 349.96h-16v-16a4 4 0 0 0-8 0v16h-16a4 4 0 1 0 0 8h16v16a4 4 0 0 0 8 0v-16h16a4 4 0 0 0 0-8z" fill="#FFDD00" p-id="5786"></path><path d="M512 256a24 24 0 1 1 24-24 24 24 0 0 1-24 24z m0-40a16 16 0 1 0 16 16 16 16 0 0 0-16-16z" fill="#40BDFF" p-id="5787"></path><path d="M830.6 617.96a24 24 0 1 1 24-24 24 24 0 0 1-24 24z m0-40a16 16 0 1 0 16 16 16 16 0 0 0-16-16z" fill="#FFDD00" p-id="5788"></path><path d="M188 707h-10.36l7.32-7.32a4 4 0 0 0-5.64-5.64L172 701.32v-10.36a4 4 0 0 0-8 0v10.36l-7.32-7.32a4 4 0 0 0-5.64 5.64l7.32 7.32H148a4 4 0 0 0 0 8h10.36l-7.32 7.32a4 4 0 0 0 5.64 5.72l7.32-7.36v10.36a4 4 0 0 0 8 0v-10.36l7.32 7.36a4 4 0 0 0 5.64-5.64l-7.32-7.32H188a4 4 0 0 0 0-8z" fill="#40BDFF" p-id="5789"></path></svg>